<svg xmlns="http://www.w3.org/2000/svg" width="1792" height="1792"><rect id="backgroundrect" width="100%" height="100%" x="0" y="0" fill="none" stroke="none"/>
	
<g class="currentLayer"><title>Layer 1</title><path class="glyph selected" unicode="" d="M2048,2012 q209,0 385.5,-103 t279.5,-279.5 t103,-385.5 q0,-251 -146.5,-451.5 t-378.5,-277.5 q-27,-5 -40,7 t-13,30 q0,3 0.5,76.5 t0.5,134.5 q0,97 -52,142 q57,6 102.5,18 t94,39 t81,66.5 t53,105 t20.5,150.5 q0,119 -79,206 q37,91 -8,204 q-28,9 -81,-11 t-92,-44 l-38,-24 q-93,26 -192,26 t-192,-26 q-16,11 -42.5,27 t-83.5,38.5 t-85,13.5 q-45,-113 -8,-204 q-79,-87 -79,-206 q0,-85 20.5,-150 t52.5,-105 t80.5,-67 t94,-39 t102.5,-18 q-39,-36 -49,-103 q-21,-10 -45,-15 t-57,-5 t-65.5,21.5 t-55.5,62.5 q-19,32 -48.5,52 t-49.5,24 l-20,3 q-21,0 -29,-4.5 t-5,-11.5 t9,-14 t13,-12 l7,-5 q22,-10 43.5,-38 t31.5,-51 l10,-23 q13,-38 44,-61.5 t67,-30 t69.5,-7 t55.5,3.5 l23,4 q0,-38 0.5,-88.5 t0.5,-54.5 q0,-18 -13,-30 t-40,-7 q-232,77 -378.5,277.5 t-146.5,451.5 q0,209 103,385.5 t279.5,279.5 t385.5,103 zM1571,909 q3,7 -7,12 q-10,3 -13,-2 q-3,-7 7,-12 q9,-6 13,2 zM1602,875 q7,5 -2,16 q-10,9 -16,3 q-7,-5 2,-16 q10,-10 16,-3 zM1632,830 q9,7 0,19 q-8,13 -17,6 q-9,-5 0,-18 t17,-7 zM1674,788 q8,8 -4,19 q-12,12 -20,3 q-9,-8 4,-19 q12,-12 20,-3 zM1731,763 q3,11 -13,16 q-15,4 -19,-7 t13,-15 q15,-6 19,6 zM1794,758 q0,13 -17,11 q-16,0 -16,-11 q0,-13 17,-11 q16,0 16,11 zM1852,768 q-2,11 -18,9 q-16,-3 -14,-15 t18,-8 t14,14 z" id="svg_1" transform="rotate(-180 1474.75,1082.25) "/></g></svg>